<svg version="1.0" xmlns="http://www.w3.org/2000/svg" viewBox="0 0 512 512"><path fill="currentColor" transform="translate(0,512) scale(0.1,-0.1)" d="M685 4898 c-270 -93 -379 -203 -464 -469 -16 -51 -16 -3687 0 -3738 31 -96 56 -152 96 -212 83 -127 184 -197 374 -258 51 -16 3687 -16 3738 0 96 31 152 56 212 96 127 83 197 184 258 374 16 51 16 3687 0 3738 -31 96 -56 152 -96 212 -83 127 -184 197 -374 258 -48 15 -3699 14 -3744 -1z m1990 -536 c39 -12 81 -22 95 -22 54 -1 73 -44 51 -116 -5 -16 -14 -49 -21 -74 -20 -73 -101 -254 -179 -400 -11 -19 -29 -56 -40 -82 -12 -27 -30 -69 -42 -95 -41 -94 -59 -146 -59 -173 0 -43 112 -51 890 -59 652 -8 773 -13 843 -40 16 -6 37 -11 47 -11 11 0 50 -14 87 -31 37 -17 79 -36 93 -42 73 -33 154 -112 192 -188 35 -72 41 -99 41 -194 0 -87 -10 -142 -36 -195 -9 -18 -17 -37 -17 -43 0 -5 -21 -53 -46 -106 -52 -107 -61 -126 -197 -396 -52 -104 -112 -226 -132 -270 -55 -118 -281 -574 -308 -620 -37 -65 -76 -124 -105 -158 -52 -63 -181 -184 -214 -201 -18 -10 -53 -29 -77 -42 -24 -14 -76 -34 -115 -45 -76 -22 -87 -24 -476 -70 -124 -15 -1846 -24 -1875 -10 -11 6 -54 12 -95 15 -41 2 -95 9 -120 15 -25 6 -73 15 -107 20 -122 17 -217 87 -278 204 -32 63 -35 76 -35 155 0 69 4 94 20 120 11 18 20 40 20 49 0 24 143 326 293 618 26 50 64 126 85 170 77 161 680 1346 793 1562 28 54 99 190 156 303 58 112 113 217 124 231 10 15 19 32 19 37 0 6 33 43 73 83 68 69 77 74 162 100 84 25 100 27 255 25 136 -2 177 -6 235 -24zM2470 2755 c-180 -22 -262 -53 -343 -133 -60 -58 -76 -86 -217 -357 -149 -286 -183 -350 -195 -365 -7 -8 -25 -42 -41 -75 -15 -33 -43 -85 -60 -116 -17 -31 -53 -103 -78 -159 -76 -164 -66 -225 45 -281 48 -24 71 -29 127 -29 37 0 73 -5 78 -10 14 -14 974 -8 1029 6 64 17 115 48 182 111 56 52 73 78 159 248 110 217 212 413 242 466 28 50 35 63 78 149 20 41 48 91 61 110 12 19 23 39 23 43 0 5 25 59 55 120 45 89 55 118 53 151 -3 35 -8 43 -48 66 -42 24 -81 38 -155 56 -55 14 -881 13 -995 -1z"/></svg>
