<svg version="1.0" xmlns="http://www.w3.org/2000/svg" viewBox="0 0 512 512"><path fill="currentColor" transform="translate(0,512) scale(0.1,-0.1)" d="M960 4791 c-195 -6 -208 -7 -270 -34 -178 -75 -281 -188 -346 -377 -18 -53 -19 -116 -19 -1820 l0 -1765 23 -66 c63 -183 186 -308 369 -375 l78 -29 1765 0 1765 0 66 23 c89 30 172 82 237 145 59 58 98 121 139 223 l28 69 0 1770 0 1770 -23 66 c-30 89 -82 172 -145 237 -58 60 -121 99 -223 139 l-69 27 -1585 1 c-872 1 -1677 -1 -1790 -4z m1704 -511 c50 -12 101 -23 114 -26 77 -16 40 -151 -146 -534 -121 -249 -158 -345 -143 -369 16 -26 100 -31 636 -41 720 -13 939 -24 1035 -49 120 -32 249 -101 307 -165 80 -87 97 -131 101 -262 4 -110 3 -112 -37 -215 -59 -152 -650 -1344 -709 -1430 -27 -41 -93 -116 -146 -167 -77 -74 -113 -101 -179 -132 -109 -53 -164 -65 -412 -95 -204 -25 -234 -26 -1028 -32 -858 -7 -869 -6 -1142 38 -194 32 -275 83 -340 211 -30 61 -35 81 -35 141 0 120 37 200 608 1332 420 831 717 1410 796 1550 119 213 210 263 480 264 115 1 169 -4 240 -19zM2615 2750 c-390 -14 -456 -55 -634 -396 -58 -109 -133 -251 -168 -314 -35 -63 -109 -206 -165 -318 -139 -277 -142 -324 -28 -386 37 -20 73 -30 137 -36 165 -17 418 -21 738 -12 359 9 346 7 453 92 72 58 93 91 257 408 78 152 175 338 215 412 94 175 91 169 145 285 56 119 62 167 25 196 -14 10 -50 28 -80 40 -90 35 -412 46 -895 29z"/></svg>
